<?xml version="1.0" encoding="UTF-8"?>
<svg xmlns="http://www.w3.org/2000/svg" viewBox="0 0 631 637" width="631" height="637">
<path d="M292.74 82.35C307.44 80.04 326.72 82.14 341.5 83.88C449.93 96.63 532.51 196.02 540.67 302.44C547.58 392.56 510.64 475.97 436.25 527.73C424.49 535.91 411.62 543.41 398.33 548.86C374.51 558.64 350.07 564.07 324.5 566.01C303.42 567.62 281.64 565.26 261.2 560.42C241.96 555.87 223.38 549.04 206 539.52C97.45 480.04 54.35 342.1 98 228.57C120.9 169.01 174.65 114.3 235.89 94.43C248.78 90.25 262.13 86.09 275.54 84.14C281.24 83.31 287.04 83.24 292.74 82.35ZM295.62 105.34C273.97 108.36 255.17 111.85 234.69 120.24C180.98 142.24 141.13 185.97 119.61 239.22C116.46 247.01 113.61 255.28 111.85 263.5C110.02 272.08 107.93 280.76 106.88 289.5C103.27 319.33 105.46 350.47 112.86 379.48C131.84 453.88 189.8 516.33 265.42 534.21C285.04 538.85 306.3 540.81 326.5 538.85C355.04 536.08 382.97 528.74 408.34 514.85C458.22 487.54 497.69 433.17 510.47 378.05C515.84 354.89 517.99 330.42 516.64 306.5C511.15 208.52 438.02 121.07 339.52 106.97C327.06 105.19 308.02 103.6 295.62 105.34ZM309.5 287.63C315.61 285.16 320.44 277.28 325.19 272.69C340.05 258.32 354.41 243.18 368.87 228.37C380.13 216.84 393.44 208.06 407.94 221.56C422.35 234.98 415.62 249.6 403.94 261.44C389.62 275.97 375.72 291.39 362.33 306.79C357.41 312.45 350.08 317.83 346.77 324.5C362.32 341.36 378.57 357.58 393.96 374.54C400.28 381.51 408.67 387.93 413.27 396.22C419.21 406.95 415.23 419.34 406.51 427.01C393.88 438.09 379.28 431.74 369.25 421.26C357.04 408.49 344.78 395.72 332.79 382.73C326.52 375.95 318 364.8 310.5 359.99C302.57 367.13 295.37 375.8 288.38 383.85C281.41 391.87 273.62 399.14 266.51 407.02C260.59 413.56 254.81 420.87 247.88 426.4C237.74 434.47 223.62 434.13 214.15 425.35C205.67 417.5 202.89 405.84 208.9 395.54C213.67 387.36 225.51 376.96 232.34 369.83C246.63 354.92 260.33 339.02 275.5 325C272.72 318.8 263.83 311.66 259.04 306.44C245.35 291.49 230.79 277.27 217.65 261.82C214.9 258.6 211.8 255.61 209.43 252.07C203.6 243.35 204.96 231.17 212.01 223.52C221.99 212.7 236.48 213.03 247.24 222.29C252.98 227.24 257.63 233.24 262.85 238.66C272.49 248.65 282.23 258.61 291.66 268.82C297.47 275.1 302.99 282.07 309.5 287.63Z" fill="#fd2226" fill-rule="evenodd" stroke="#fd2226" stroke-width="0.25" stroke-linejoin="round"/>
</svg>