<?xml version="1.0" encoding="UTF-8"?>
<svg xmlns="http://www.w3.org/2000/svg" viewBox="0 0 685 691" width="685" height="691">
<path d="M312.69 73.3C317.19 72.58 321.95 72.92 326.5 72.88C339.75 72.79 352.54 73.84 365.55 75.82C435.04 86.4 496.32 133.53 529.45 195.06C544.66 223.31 553.44 254.02 557.87 285.54C560.31 302.84 559.52 321.16 558.15 338.5C552.68 407.97 518.2 471.8 462.16 513.63C448.44 523.87 433.36 533.57 417.34 539.88C393.84 549.15 369.69 555.11 344.5 556.93C322.35 558.54 299.71 556.35 278.24 551.36C204.53 534.23 141.79 475.73 115.29 405.23C103.59 374.09 98.52 341.73 98.82 308.5C99.05 282.73 102.77 257.12 111.25 232.73C133.41 169 181.15 113.34 244.76 88.28C260.63 82.03 277.74 77.59 294.52 75.03C300.55 74.12 306.69 74.25 312.69 73.3ZM310.8 96.43C305.43 97.25 300 97.42 294.65 98.29C281.06 100.5 267.7 104.62 254.74 109.3C244.33 113.06 234.27 118.63 224.85 124.4C173.2 156.01 135.55 209.48 125.24 269.57C113.13 340.09 133.99 415.59 183.97 467.53C190.87 474.7 197.92 481.64 205.9 487.58C218.67 497.08 231.85 506.53 246.72 512.76C263.37 519.75 279.66 525.21 297.46 528.12C313.98 530.82 331.72 531.82 348.48 529.81C375.47 526.57 400.76 519.16 424.96 506.43C438.99 499.06 450.39 488.92 462.56 479.04C474.04 469.73 484.02 458.14 492.57 446.11C523.87 402.09 539.13 348.54 534.81 294.5C529.47 227.79 492.73 161.89 435.04 126.47C426.67 121.33 418.36 116.11 409.28 112.24C392.44 105.08 374.61 99.48 356.47 97.17C354.17 96.87 351.83 97.14 349.53 96.85C338.8 95.52 321.44 94.81 310.8 96.43ZM296.5 345.97C300.42 343.81 303.32 339.27 306.51 336.02C313.62 328.76 320.37 321.23 327.49 313.99C352.94 288.11 377.54 261.37 402.97 235.47C415.1 223.12 428.03 202.51 448.17 214.35C450.97 216 453.48 218.51 455.47 221.08C470.4 240.33 444.37 258.56 433.33 271.82C430.17 275.62 426.46 278.99 423.11 282.63C410.98 295.82 398.66 308.86 386.6 322.12C370.44 339.91 354.66 358.17 338.02 375.52C327.14 386.89 314.95 407.04 297.5 406.47C284.57 406.06 276.69 395.65 268.49 387C256.48 374.35 245.19 360.98 233.37 348.16C226.05 340.22 217.8 332.85 211.01 324.45C204.55 316.44 203.4 307.07 208.52 298.03C215.02 286.53 231.92 281.02 242.98 289.49C247.54 292.98 251.06 297.39 255.04 301.45C264.62 311.22 273.75 321.45 282.97 331.54C287.25 336.22 291.18 342.57 296.5 345.97Z" fill="#2fc809" fill-rule="evenodd" stroke="#2fc809" stroke-width="0.25" stroke-linejoin="round"/>
</svg>